{
  "accessors": [
    {
      "bufferView": 2,
      "componentType": 5126,
      "count": 5111,
      "max": [
        493.79705810546875,
        350.8080139160156,
        25.29545783996582
      ],
      "min": [
        -494.02679443359375,
        -354.8021240234375,
        -42.314125061035156
      ],
      "type": "VEC3"
    },
    {
      "bufferView": 2,
      "byteOffset": 61332,
      "componentType": 5126,
      "count": 5111,
      "max": [
        0.9999076128005981,
        0.9998418092727661,
        0.9999992251396179
      ],
      "min": [
        -0.9994640350341797,
        -0.9999412894248962,
        -0.9999983906745911
      ],
      "type": "VEC3"
    },
    {
      "bufferView": 1,
      "componentType": 5126,
      "count": 5111,
      "max": [
        0.9900156259536743,
        0.99188631772995
      ],
      "min": [
        0.009984389878809452,
        0.008113741874694824
      ],
      "type": "VEC2"
    },
    {
      "bufferView": 1,
      "byteOffset": 40888,
      "componentType": 5126,
      "count": 5111,
      "max": [
        0.9900156259536743,
        0.99188631772995
      ],
      "min": [
        0.009984389878809452,
        0.008113741874694824
      ],
      "type": "VEC2"
    },
    {
      "bufferView": 0,
      "componentType": 5125,
      "count": 27540,
      "type": "SCALAR"
    },
    {
      "bufferView": 2,
      "byteOffset": 122664,
      "componentType": 5126,
      "count": 22447,
      "max": [
        486.3528747558594,
        277.7721862792969,
        11.819999694824219
      ],
      "min": [
        -486.3528747558594,
        -277.7721862792969,
        -63.23699951171875
      ],
      "type": "VEC3"
    },
    {
      "bufferView": 2,
      "byteOffset": 392028,
      "componentType": 5126,
      "count": 22447,
      "max": [
        0.9999997615814209,
        1.0,
        1.0
      ],
      "min": [
        -0.9999997615814209,
        -1.0,
        -1.0
      ],
      "type": "VEC3"
    },
    {
      "bufferView": 1,
      "byteOffset": 81776,
      "componentType": 5126,
      "count": 22447,
      "max": [
        0.9897519946098328,
        0.99163818359375
      ],
      "min": [
        0.010247979313135147,
        0.00836181640625
      ],
      "type": "VEC2"
    },
    {
      "bufferView": 1,
      "byteOffset": 261352,
      "componentType": 5126,
      "count": 22447,
      "max": [
        0.9897519946098328,
        0.99163818359375
      ],
      "min": [
        0.010247979313135147,
        0.00836181640625
      ],
      "type": "VEC2"
    },
    {
      "bufferView": 0,
      "byteOffset": 110160,
      "componentType": 5125,
      "count": 128832,
      "type": "SCALAR"
    },
    {
      "bufferView": 2,
      "byteOffset": 661392,
      "componentType": 5126,
      "count": 5111,
      "max": [
        493.79705810546875,
        350.8080139160156,
        25.29545783996582
      ],
      "min": [
        -494.02679443359375,
        -354.8021240234375,
        -42.314125061035156
      ],
      "type": "VEC3"
    },
    {
      "bufferView": 2,
      "byteOffset": 722724,
      "componentType": 5126,
      "count": 5111,
      "max": [
        0.9999076128005981,
        0.9998418092727661,
        0.9999992251396179
      ],
      "min": [
        -0.9994640350341797,
        -0.9999412894248962,
        -0.9999983906745911
      ],
      "type": "VEC3"
    },
    {
      "bufferView": 1,
      "byteOffset": 440928,
      "componentType": 5126,
      "count": 5111,
      "max": [
        0.9900156259536743,
        0.99188631772995
      ],
      "min": [
        0.009984389878809452,
        0.008113741874694824
      ],
      "type": "VEC2"
    },
    {
      "bufferView": 1,
      "byteOffset": 481816,
      "componentType": 5126,
      "count": 5111,
      "max": [
        0.9900156259536743,
        0.99188631772995
      ],
      "min": [
        0.009984389878809452,
        0.008113741874694824
      ],
      "type": "VEC2"
    },
    {
      "bufferView": 0,
      "byteOffset": 625488,
      "componentType": 5125,
      "count": 27540,
      "type": "SCALAR"
    }
  ],
  "asset": {
    "extras": {
      "author": "Leo Isidro (https://sketchfab.com/leo.isidro3)",
      "license": "CC-BY-4.0 (http://creativecommons.org/licenses/by/4.0/)",
      "source": "https://sketchfab.com/3d-models/cookiecat-af6c1fa39c7a48d8b2e11de3434e16d1",
      "title": "COOKIECAT"
    },
    "generator": "Sketchfab-12.66.0",
    "version": "2.0"
  },
  "bufferViews": [
    {
      "buffer": 0,
      "byteLength": 735648,
      "name": "floatBufferViews",
      "target": 34963
    },
    {
      "buffer": 0,
      "byteLength": 522704,
      "byteOffset": 735648,
      "byteStride": 8,
      "name": "floatBufferViews",
      "target": 34962
    },
    {
      "buffer": 0,
      "byteLength": 784056,
      "byteOffset": 1258352,
      "byteStride": 12,
      "name": "floatBufferViews",
      "target": 34962
    }
  ],
  "buffers": [
    {
      "byteLength": 2042408,
      "uri": "scene.bin"
    }
  ],
  "extensionsRequired": [
    "KHR_materials_pbrSpecularGlossiness"
  ],
  "extensionsUsed": [
    "KHR_materials_pbrSpecularGlossiness"
  ],
  "images": [
    {
      "uri": "textures/Mat.1_diffuse.png"
    },
    {
      "uri": "textures/material_diffuse.png"
    }
  ],
  "materials": [
    {
      "doubleSided": true,
      "extensions": {
        "KHR_materials_pbrSpecularGlossiness": {
          "diffuseFactor": [
            1.0,
            1.0,
            1.0,
            1.0
          ],
          "diffuseTexture": {
            "index": 0
          },
          "glossinessFactor": 0.18348485773259943,
          "specularFactor": [
            0.03741333050646771,
            0.015477029367394538,
            0.00014474218517467798
          ]
        }
      },
      "name": "Mat.1"
    },
    {
      "doubleSided": true,
      "extensions": {
        "KHR_materials_pbrSpecularGlossiness": {
          "diffuseFactor": [
            1.0,
            1.0,
            1.0,
            1.0
          ],
          "diffuseTexture": {
            "index": 1
          },
          "glossinessFactor": 1.0,
          "specularFactor": [
            0.0,
            0.0,
            0.0
          ]
        }
      },
      "name": "material"
    }
  ],
  "meshes": [
    {
      "name": "COOKIE_Mat.1_0",
      "primitives": [
        {
          "attributes": {
            "NORMAL": 1,
            "POSITION": 0,
            "TEXCOORD_0": 2,
            "TEXCOORD_1": 3
          },
          "indices": 4,
          "material": 0,
          "mode": 4
        }
      ]
    },
    {
      "name": "ICECREAM_Mat_0",
      "primitives": [
        {
          "attributes": {
            "NORMAL": 6,
            "POSITION": 5,
            "TEXCOORD_0": 7,
            "TEXCOORD_1": 8
          },
          "indices": 9,
          "material": 1,
          "mode": 4
        }
      ]
    },
    {
      "name": "COOKIE_1_Mat.1_0",
      "primitives": [
        {
          "attributes": {
            "NORMAL": 11,
            "POSITION": 10,
            "TEXCOORD_0": 12,
            "TEXCOORD_1": 13
          },
          "indices": 14,
          "material": 0,
          "mode": 4
        }
      ]
    }
  ],
  "nodes": [
    {
      "children": [
        1
      ],
      "matrix": [
        1.0,
        0.0,
        0.0,
        0.0,
        0.0,
        2.220446049250313e-16,
        -1.0,
        0.0,
        0.0,
        1.0,
        2.220446049250313e-16,
        0.0,
        0.0,
        0.0,
        0.0,
        1.0
      ],
      "name": "Sketchfab_model"
    },
    {
      "children": [
        2
      ],
      "matrix": [
        1.0,
        0.0,
        0.0,
        0.0,
        0.0,
        0.0,
        1.0,
        0.0,
        0.0,
        -1.0,
        0.0,
        0.0,
        0.0,
        0.0,
        0.0,
        1.0
      ],
      "name": "7e43ee9fe809425fb321229505f5889c.fbx"
    },
    {
      "children": [
        3,
        5,
        7
      ],
      "name": "RootNode"
    },
    {
      "children": [
        4
      ],
      "matrix": [
        -1.0,
        1.2246467991473532e-16,
        -3.6739403974420594e-16,
        0.0,
        -3.6739403974420594e-16,
        -2.220446049250313e-16,
        1.0,
        0.0,
        1.2246467991473525e-16,
        1.0,
        2.220446049250313e-16,
        0.0,
        4.4956815776608233e-14,
        2.9179139137268066,
        34.08920669555664,
        1.0
      ],
      "name": "COOKIE"
    },
    {
      "mesh": 0,
      "name": "COOKIE_Mat.1_0"
    },
    {
      "children": [
        6
      ],
      "matrix": [
        -1.0,
        1.2246467991473532e-16,
        -1.224646799147353e-16,
        0.0,
        -1.2246467991473532e-16,
        -2.220446049250313e-16,
        1.0,
        0.0,
        1.224646799147353e-16,
        1.0,
        2.220446049250313e-16,
        0.0,
        5.330626348318268e-14,
        -35.465877532958984,
        -34.08920669555664,
        1.0
      ],
      "name": "ICECREAM"
    },
    {
      "mesh": 1,
      "name": "ICECREAM_Mat_0"
    },
    {
      "children": [
        8
      ],
      "matrix": [
        1.0,
        0.0,
        -4.898587196589413e-16,
        0.0,
        4.898587196589413e-16,
        -2.220446049250313e-16,
        1.0,
        0.0,
        -9.860761315262648e-32,
        -1.0,
        -2.220446049250313e-16,
        0.0,
        4.4956815776608233e-14,
        -130.2480010986328,
        34.08920669555664,
        1.0
      ],
      "name": "COOKIE_1"
    },
    {
      "mesh": 2,
      "name": "COOKIE_1_Mat.1_0"
    }
  ],
  "samplers": [
    {
      "magFilter": 9729,
      "minFilter": 9987,
      "wrapS": 10497,
      "wrapT": 10497
    }
  ],
  "scene": 0,
  "scenes": [
    {
      "name": "Sketchfab_Scene",
      "nodes": [
        0
      ]
    }
  ],
  "textures": [
    {
      "sampler": 0,
      "source": 0
    },
    {
      "sampler": 0,
      "source": 1
    }
  ]
}
