<svg version="1.1" viewBox="0.0 0.0 250.9265091863517 238.49343832020998" fill="none" stroke="none" stroke-linecap="square" stroke-miterlimit="10" xmlns:xlink="http://www.w3.org/1999/xlink" xmlns="http://www.w3.org/2000/svg"><clipPath id="p.0"><path d="m0 0l250.92651 0l0 238.49344l-250.92651 0l0 -238.49344z" clip-rule="nonzero"/></clipPath><g clip-path="url(#p.0)"><path fill="#000000" fill-opacity="0.0" d="m0 0l250.92651 0l0 238.49344l-250.92651 0z" fill-rule="evenodd"/><path fill="#29ad99" fill-opacity="0.5179" d="m13.435696 118.11286l0 0c0 -60.23818 50.602398 -109.07087 113.02362 -109.07087l0 0c29.975723 0 58.723724 11.491361 79.91977 31.946117c21.196045 20.454754 33.10385 48.197357 33.10385 77.12475l0 0c0 60.238182 -50.6024 109.07087 -113.02362 109.07087l0 0c-62.421227 0 -113.02362 -48.832687 -113.02362 -109.07087z" fill-rule="evenodd"/><path stroke="#29ad99" stroke-width="1.0" stroke-linejoin="round" stroke-linecap="butt" d="m13.435696 118.11286l0 0c0 -60.23818 50.602398 -109.07087 113.02362 -109.07087l0 0c29.975723 0 58.723724 11.491361 79.91977 31.946117c21.196045 20.454754 33.10385 48.197357 33.10385 77.12475l0 0c0 60.238182 -50.6024 109.07087 -113.02362 109.07087l0 0c-62.421227 0 -113.02362 -48.832687 -113.02362 -109.07087z" fill-rule="evenodd"/><path fill="#29ad99" d="m180.45668 214.71146l0 0c-63.003944 24.283127 -131.55725 -1.3318176 -153.1181 -57.2126c-21.560848 -55.880775 12.035423 -120.86647 75.03937 -145.1496l0 0c-38.846695 34.963696 -53.015514 86.11955 -36.03927 130.1181c16.97625 43.998535 61.841682 72.401276 114.118004 72.24411z" fill-rule="evenodd"/><path fill="#000000" fill-opacity="0.0" d="m34.333332 30.853018l184.25197 0l0 174.51968l-184.25197 0z" fill-rule="evenodd"/><path fill="#0c343d" d="m54.395832 158.23302q-2.1875 -1.25 -3.78125 -2.625q-1.59375 -1.375 -1.59375 -2.9375q0 -3.0 2.5625 -3.0q1.6875 0 3.75 1.875q2.0625 1.875 4.625 3.28125q2.5625 1.40625 5.562504 2.40625q6.1875 2.0625 11.4375 2.0625q5.25 0 8.09375 -0.6875q2.84375 -0.6875 4.78125 -1.875q4.125 -2.5625 4.125 -6.5625q0 -3.6875 -3.5625 -7.4375q-3.0 -3.1875 -8.5 -7.625l-10.6875 -8.374992q-16.062504 -12.375 -18.937504 -22.625q-1.0 -3.5625 -1.0 -7.9375q0 -4.375 1.96875 -8.625q1.96875 -4.25 5.84375 -7.4375q8.312504 -6.9375 22.625004 -6.9375q7.3125 0 13.125 2.15625q5.8125 2.15625 7.9375 3.84375q2.125 1.6875 2.125 3.0625q0 2.875 -2.375 2.875q-1.375 0 -2.9375 -1.375q-1.5625 -1.375 -3.46875 -2.40625q-1.90625 -1.03125 -4.34375 -1.84375q-5.25 -1.75 -10.3125 -1.75q-9.3125 0 -9.3125 6.125q0 2.5625 1.6875 4.75q3.0 3.8125 11.71875 10.90625q8.71875 7.09375 14.0 12.40625q5.28125 5.3125 8.03125 9.5625q4.375 6.6874924 4.375 13.906242q0 7.21875 -2.53125 12.25q-2.53125 5.03125 -7.09375 8.65625q-9.625 7.625 -23.875 7.625q-14.25 0 -24.062504 -5.6875zm146.0625 -10.3125q2.5625 0 2.5625 2.875q0 2.375 -3.625 4.75q-6.75 4.4375 -11.375 5.8125q-8.6875 2.5625 -18.25 2.5625q-9.5625 0 -18.40625 -3.40625q-8.84375 -3.40625 -15.09375 -9.53125q-13.062492 -12.875 -13.062492 -33.249992q0 -9.8125 3.6875 -18.03125q3.6874924 -8.21875 10.187492 -14.09375q13.75 -12.4375 34.5625 -12.4375q11.6875 0 20.5625 4.0q9.4375 4.1875 9.4375 7.125q0 1.1875 -0.78125 2.0625q-0.78125 0.875 -1.78125 0.875q-2.0 0 -3.625 -1.78125q-1.625 -1.78125 -4.40625 -3.21875q-2.78125 -1.4375 -6.09375 -2.5q-6.75 -2.0625 -12.28125 -2.0625q-5.53125 0 -9.15625 0.75l0 80.12499q4.375 0.75 7.75 0.75q3.375 0 6.875 -0.4375q3.5 -0.4375 6.875 -1.4375q7.5625 -2.25 11.375 -6.625q1.375 -1.625 2.1875 -2.25q0.8125 -0.625 1.875 -0.625z" fill-rule="nonzero"/></g></svg>